<svg xmlns="http://www.w3.org/2000/svg" version="1.1" xmlns:xlink="http://www.w3.org/1999/xlink" xmlns:svgjs="http://svgjs.dev/svgjs" viewBox="0 0 800 800"><defs><linearGradient x1="50%" y1="0%" x2="50%" y2="100%" id="ssspill-grad"><stop stop-color="191716" stop-opacity="1" offset="45%"></stop><stop stop-color="908380" stop-opacity="1" offset="100%"></stop></linearGradient><filter id="ssspot-filter" x="-20%" y="-20%" width="140%" height="140%" filterUnits="objectBoundingBox" primitiveUnits="userSpaceOnUse" color-interpolation-filters="sRGB">
	<feTurbulence type="turbulence" baseFrequency="0.022 0.218" numOctaves="2" seed="184" stitchTiles="stitch" x="0%" y="0%" width="100%" height="100%" result="turbulence"></feTurbulence>
	<feGaussianBlur stdDeviation="0 3" x="0%" y="0%" width="100%" height="100%" in="turbulence" edgeMode="duplicate" result="blur"></feGaussianBlur>
	<feDisplacementMap in="SourceGraphic" in2="blur" scale="32" xChannelSelector="R" yChannelSelector="B" x="0%" y="0%" width="100%" height="100%" result="displacementMap"></feDisplacementMap>
</filter></defs><rect width="100%" height="100%" fill="hsl(32, 100%, 89%)"></rect><g fill="url(#ssspill-grad)" filter="url(#ssspot-filter)"><circle r="7.934223009093602" cx="168.78266182868796" cy="482.24205029619685" opacity="0.6022544740708071"></circle><circle r="6.484900892088547" cx="408.67213433442686" cy="75.32296755712622" opacity="0.1649156978419232"></circle><circle r="6.803085064217322" cx="781.2592779132535" cy="484.57590873366115" opacity="0.6360787982579115"></circle><circle r="4.41554935345043" cx="463.91236734832967" cy="593.9120563768573" opacity="0.9829247684208094"></circle><circle r="2.66516565191798" cx="360.7656146174214" cy="79.09862669354278" opacity="0.2640384710862201"></circle><circle r="3.8665464472464537" cx="687.5336124144081" cy="573.6673460555382" opacity="0.8567304593835999"></circle><circle r="6.279412449600089" cx="535.4629751604646" cy="424.4096988010643" opacity="0.9468076609873172"></circle><circle r="5.174161264942027" cx="619.3340734459589" cy="283.4615699452081" opacity="0.6782726085762489"></circle><circle r="6.226353693036094" cx="421.65957900275396" cy="187.94452126234992" opacity="0.5577551292949932"></circle><circle r="6.987919352775995" cx="388.9935815199867" cy="49.580873574553245" opacity="0.3950426909541428"></circle><circle r="6.415097954441276" cx="786.4957814227628" cy="140.38847500804496" opacity="0.9498040282854754"></circle><circle r="5.486066778297071" cx="249.5742813059351" cy="483.83267535836984" opacity="0.706438739689203"></circle><circle r="6.375295333455851" cx="751.5978909171776" cy="736.0355880264949" opacity="0.10615636181978848"></circle><circle r="7.400176015557447" cx="682.2343425258098" cy="782.6376868027875" opacity="0.5465736296958509"></circle><circle r="10.13760890465121" cx="290.3349989480972" cy="530.6055075926201" opacity="0.21250590564993138"></circle><circle r="6.144711527646246" cx="533.6989356390163" cy="325.22073185631604" opacity="0.12351154195530233"></circle><circle r="3.785204596282752" cx="105.08688260989278" cy="209.222137774671" opacity="0.236476133168028"></circle><circle r="7.743834789001347" cx="702.6836511413427" cy="413.17027648452586" opacity="0.9674127755632972"></circle><circle r="2.2285943073685677" cx="689.3319755236249" cy="473.1820657855878" opacity="0.6250019705416172"></circle><circle r="4.9098123967245515" cx="230.0469491366496" cy="366.9056478950743" opacity="0.3966792296355144"></circle><circle r="9.459346720502648" cx="204.22207920954378" cy="674.9385940567977" opacity="0.9113412635698588"></circle><circle r="6.001307431721705" cx="264.54090922255625" cy="241.90903029608225" opacity="0.28068946841213427"></circle><circle r="4.085002517126167" cx="18.10654786398378" cy="608.9855578748117" opacity="0.2648441590712255"></circle><circle r="8.079306295774916" cx="692.0565855802196" cy="332.1732358014361" opacity="0.5786623036295769"></circle><circle r="6.2101987226084585" cx="665.5498409550756" cy="317.30252479856966" opacity="0.9707287737869726"></circle><circle r="5.820889455773893" cx="514.3528467335807" cy="493.39521656098293" opacity="0.591335339479957"></circle><circle r="6.585509107783414" cx="440.3075595833216" cy="476.51841818973867" opacity="0.9025501804266242"></circle><circle r="5.372728552834044" cx="552.9220449389949" cy="743.1854132027225" opacity="0.29787814365317644"></circle><circle r="4.994623935777746" cx="439.5738045971947" cy="17.478107371788486" opacity="0.5162305951685305"></circle><circle r="8.196467474943534" cx="356.85158527852326" cy="290.0207417864421" opacity="0.5205536879195044"></circle><circle r="6.096274085907021" cx="110.39879458349465" cy="41.62137671272711" opacity="0.6654165191480023"></circle><circle r="3.7442374118153943" cx="754.371678032179" cy="786.4056522253317" opacity="0.5106872796065445"></circle><circle r="4.646316703407604" cx="271.43403130526" cy="95.07287700110209" opacity="0.41577015975099574"></circle><circle r="5.885928188921229" cx="47.26678089348794" cy="171.5291010620599" opacity="0.23747361988252447"></circle><circle r="8.177354392149487" cx="26.022133733356743" cy="775.0990973048242" opacity="0.2924686063864048"></circle><circle r="4.890667375723597" cx="560.5637757800374" cy="295.51867923434133" opacity="0.18961859201781092"></circle><circle r="6.823786656897425" cx="548.0433680365423" cy="562.9145772820892" opacity="0.5233140598159595"></circle><circle r="4.806991076615269" cx="769.1071358107904" cy="698.5185015766318" opacity="0.971464812795499"></circle><circle r="5.749993830965748" cx="205.24541395105467" cy="772.2717850672814" opacity="0.789523945505192"></circle><circle r="6.797254689835814" cx="579.3801207240267" cy="345.60022926746257" opacity="0.16453093700024046"></circle><circle r="9.015394238177963" cx="78.41054499444982" cy="179.67724180110784" opacity="0.539476442626885"></circle><circle r="6.038697485669651" cx="354.2833631634098" cy="57.3871229090435" opacity="0.7352815500311285"></circle><circle r="6.423611713366379" cx="564.8610024154326" cy="781.5920535767216" opacity="0.4147250273737092"></circle><circle r="6.304231691645013" cx="564.814758694409" cy="446.77086430485497" opacity="0.7371869961776676"></circle><circle r="3.9497021743796323" cx="458.56731052527334" cy="315.49043903393715" opacity="0.2401850555061212"></circle><circle r="6.385422876150116" cx="498.2495119256557" cy="14.829545989127435" opacity="0.1932590050326093"></circle><circle r="4.213897282597972" cx="510.6547519177161" cy="249.4483068925628" opacity="0.48335726940600654"></circle><circle r="5.616879443522047" cx="58.6414019110754" cy="365.91802659484415" opacity="0.28171044060652345"></circle><circle r="3.1037295687694444" cx="67.12197325162037" cy="313.85922376000696" opacity="0.6629771906728454"></circle><circle r="2.57895735405149" cx="791.9901165937245" cy="43.01431996504211" opacity="0.7232217662877886"></circle><circle r="3.7169119676476723" cx="758.3372769250964" cy="144.73260516941258" opacity="0.9549603070548947"></circle><circle r="4.053433859831989" cx="258.98666650400094" cy="551.3996686175119" opacity="0.9484154344385589"></circle><circle r="9.027056798452271" cx="101.12308799957728" cy="661.461504300705" opacity="0.7891558454812594"></circle><circle r="5.61620950999475" cx="544.2980874578836" cy="536.7537350333614" opacity="0.3344022903666597"></circle><circle r="5.223218503403972" cx="203.88534138322285" cy="468.90064970364125" opacity="0.3977403129260181"></circle><circle r="7.1243106675030035" cx="418.5883168005013" cy="676.5752228365931" opacity="0.3050959180633971"></circle><circle r="3.9373329449518013" cx="326.92634499743474" cy="199.84715188024393" opacity="0.9212777847583752"></circle><circle r="5.645861502077902" cx="321.2496146997784" cy="300.49521418144667" opacity="0.9205235339263281"></circle><circle r="5.130626364319893" cx="474.99279045474293" cy="114.01048025925651" opacity="0.1363621443087694"></circle><circle r="3.973849360677508" cx="239.76593283192665" cy="177.5020353341399" opacity="0.33437943546816196"></circle><circle r="4.733788719134283" cx="690.469292611179" cy="88.79975318561851" opacity="0.19367983128271582"></circle><circle r="6.5202544251304815" cx="223.39630645602998" cy="265.3669920168453" opacity="0.6771561721384222"></circle><circle r="7.297817064543507" cx="245.0137892367699" cy="665.2936266247502" opacity="0.27825394622714694"></circle><circle r="5.558525774277338" cx="610.3536907054398" cy="213.73730707379983" opacity="0.38169057642291737"></circle><circle r="5.311711638957111" cx="283.3841904783893" cy="713.3517521317955" opacity="0.6832176976964216"></circle><circle r="5.945590143917235" cx="739.2034339450342" cy="708.1835143460669" opacity="0.16553354509389642"></circle><circle r="6.242547654662038" cx="20.33087737357662" cy="504.5796144928892" opacity="0.14478870103614236"></circle><circle r="6.597557024825116" cx="628.6299629740051" cy="98.23621913677493" opacity="0.752356961304924"></circle><circle r="4.444783154075534" cx="263.7384256796028" cy="63.75360000233482" opacity="0.17443330481644254"></circle><circle r="6.612241469561909" cx="533.8143628261324" cy="95.32700112523231" opacity="0.7008868497963984"></circle><circle r="7.748692950523397" cx="209.40495251292725" cy="212.4088620783722" opacity="0.7983924912698841"></circle><circle r="6.418027073168435" cx="475.450814320376" cy="751.0257369551297" opacity="0.3850265983851564"></circle><circle r="4.216608711450961" cx="685.633053943061" cy="264.56947910573757" opacity="0.8437020435851217"></circle><circle r="4.465384926992246" cx="260.32113031137334" cy="284.38648655554954" opacity="0.15706912830024616"></circle><circle r="4.61583659331683" cx="559.0349985719974" cy="665.9807752163115" opacity="0.9993790633780816"></circle><circle r="8.633232465784612" cx="404.76700346769024" cy="488.7110234666312" opacity="0.553520232737769"></circle><circle r="3.439658420749345" cx="625.1370083568909" cy="237.10599900179372" opacity="0.9991697027278627"></circle><circle r="7.422272705407879" cx="613.2716212810253" cy="353.0020950251951" opacity="0.9910500047656462"></circle><circle r="4.037131738248136" cx="11.316189830098935" cy="560.6261931000046" opacity="0.8862427351696462"></circle><circle r="5.2335466431512945" cx="14.25939135678914" cy="717.3743575158378" opacity="0.11275064736988727"></circle><circle r="4.894171193407482" cx="757.151279640484" cy="20.377258825057467" opacity="0.7402385053698057"></circle><circle r="5.36109745307356" cx="784.0174783938413" cy="735.3918894392615" opacity="0.654747619376424"></circle><circle r="6.1911212502964865" cx="68.60380764002534" cy="680.0966807400582" opacity="0.3865792861703141"></circle><circle r="4.773689802027095" cx="380.99545160214956" cy="703.4893767002593" opacity="0.6838286207220938"></circle><circle r="3.543931862987606" cx="682.3007998864348" cy="458.10041728836575" opacity="0.5068889887096261"></circle><circle r="5.038989330866922" cx="206.0545763937114" cy="175.12581062241534" opacity="0.427737429298115"></circle><circle r="4.999256540992188" cx="28.860547116723644" cy="429.4297509918177" opacity="0.20599587972914885"></circle><circle r="5.419532064275293" cx="159.78217948697016" cy="395.951704511715" opacity="0.8236124366916635"></circle><circle r="5.646735723210298" cx="107.19922390978941" cy="422.690787012587" opacity="0.9459506083351178"></circle><circle r="4.620903450859492" cx="438.2005897149508" cy="567.9570297374232" opacity="0.8931795520389337"></circle><circle r="4.14045820603639" cx="510.31107810320987" cy="111.51334801440115" opacity="0.38115169521469283"></circle><circle r="6.981263148776302" cx="586.761021351383" cy="661.4038855307571" opacity="0.20560164091799701"></circle><circle r="3.827468742337614" cx="93.73362547970618" cy="619.8997774657527" opacity="0.8062894139006234"></circle><circle r="3.8152041454082037" cx="319.7289438870067" cy="275.2793679984231" opacity="0.7786697705501525"></circle><circle r="4.889562716959286" cx="708.5166004479532" cy="592.6580983492642" opacity="0.6206318820237042"></circle><circle r="5.358236309465454" cx="507.885043981769" cy="303.6803782789107" opacity="0.9597105210331363"></circle><circle r="6.275498921642003" cx="606.9074165226361" cy="600.4764057665891" opacity="0.7177727315583874"></circle><circle r="5.013686523999631" cx="454.187772964215" cy="375.9806850535262" opacity="0.11384341530595513"></circle><circle r="5.721092036958739" cx="138.04881269633995" cy="12.501485710588561" opacity="0.5796164851941354"></circle><circle r="7.089429766147463" cx="669.496785259424" cy="393.0114712874664" opacity="0.7404150804702302"></circle><circle r="4.716456574273721" cx="721.7037099099625" cy="720.9874206931735" opacity="0.7207836567474215"></circle><circle r="4.538399624993901" cx="92.23187003277035" cy="297.0726142542157" opacity="0.786835779729363"></circle><circle r="7.158233469252133" cx="536.4981890982262" cy="712.162255595991" opacity="0.3130333554183453"></circle><circle r="5.24462507965836" cx="316.9050839689475" cy="494.2621308316344" opacity="0.44494088663915443"></circle><circle r="6.7933736202661565" cx="388.0044415325096" cy="155.76693647122073" opacity="0.2969862289491963"></circle><circle r="4.337868613283847" cx="592.2197058458194" cy="31.193642995660202" opacity="0.9725403033958958"></circle><circle r="4.846405347955774" cx="118.61289261552754" cy="152.0311502554949" opacity="0.4631806411803615"></circle><circle r="4.68201605237949" cx="728.4218100333932" cy="311.9574132427079" opacity="0.1859023618888403"></circle><circle r="8.578228991766661" cx="174.91247122680986" cy="696.3752014175556" opacity="0.11138856135598325"></circle><circle r="4.047329175546363" cx="254.54552649371547" cy="523.2019584880314" opacity="0.3278114870464958"></circle><circle r="4.622507463694974" cx="466.0054102463156" cy="151.15493469524327" opacity="0.9753162353923315"></circle><circle r="4.577247462153133" cx="433.30875447489285" cy="357.66848713876834" opacity="0.7720122308969872"></circle><circle r="5.141807765405545" cx="343.917662789247" cy="262.3239380195999" opacity="0.7976719743815702"></circle><circle r="5.160894767764676" cx="305.9160948167946" cy="57.79760906261608" opacity="0.8059279090975292"></circle><circle r="7.31767586348189" cx="573.038875379828" cy="392.208718816736" opacity="0.5534229701593534"></circle><circle r="6.222808807223267" cx="745.9819345080982" cy="472.3698992406801" opacity="0.5832626147834329"></circle><circle r="4.976143850177066" cx="684.812912040777" cy="534.6693396661425" opacity="0.10852970639720456"></circle><circle r="7.806643467383147" cx="489.8498212546304" cy="419.6818378334677" opacity="0.4217151869690071"></circle><circle r="5.109695887361936" cx="597.8250771310833" cy="469.99177596537277" opacity="0.29179299329991576"></circle><circle r="5.282537661448467" cx="632.7257593579164" cy="528.8137310163963" opacity="0.7820708136104421"></circle><circle r="7.24943175326564" cx="16.077747295920194" cy="97.62149426862294" opacity="0.43798465072292114"></circle><circle r="7.504538283463537" cx="183.8613464730225" cy="610.6843016328434" opacity="0.5428433719185456"></circle><circle r="7.691288972682116" cx="433.35540288517" cy="256.2523784866479" opacity="0.4461633730137987"></circle><circle r="6.863036777814143" cx="316.70303867988946" cy="573.1076158247793" opacity="0.636626127254974"></circle><circle r="4.213944072087673" cx="774.0421156017899" cy="42.26584723042765" opacity="0.20859500187433916"></circle><circle r="5.675865072158999" cx="636.2170471860285" cy="784.4667555568836" opacity="0.6435945149658874"></circle><circle r="6.2659603505391015" cx="577.1032419458402" cy="534.9302296534272" opacity="0.7248411874453626"></circle><circle r="5.652496365758946" cx="730.9770491164518" cy="17.382772031871706" opacity="0.7230586519770883"></circle><circle r="5.442916565127959" cx="779.2179168302257" cy="364.66651103892895" opacity="0.9800880928764846"></circle><circle r="7.725255857193943" cx="123.0440264592463" cy="629.1171280992997" opacity="0.944241710774282"></circle><circle r="4.594364783422991" cx="589.4520608913011" cy="314.4458811936942" opacity="0.6075756087610548"></circle><circle r="6.552537366827673" cx="231.33943398958638" cy="777.2317676779298" opacity="0.27212666002765384"></circle><circle r="6.030132099726144" cx="486.7852794871388" cy="666.8283884221072" opacity="0.5185688517004265"></circle><circle r="5.318728617214795" cx="41.77148310262008" cy="557.3183648121961" opacity="0.8318474413625081"></circle><circle r="8.969048130961548" cx="134.1367577381026" cy="463.80189688724965" opacity="0.9653566338289145"></circle><circle r="3.2457499239156795" cx="788.7115642732458" cy="668.0032751565448" opacity="0.9004328908506924"></circle><circle r="8.618770780555359" cx="228.19647915311435" cy="600.1976133483676" opacity="0.4958582608287886"></circle><circle r="6.4477768837357115" cx="122.3681010575898" cy="331.44377202534673" opacity="0.19657346682073001"></circle><circle r="3.1821008911888278" cx="90.8529507207039" cy="320.87906314239507" opacity="0.7623175981329088"></circle><circle r="6.610591326164234" cx="266.6961845378011" cy="158.06866865460404" opacity="0.477753407480918"></circle><circle r="7.865278732289366" cx="48.615631346330204" cy="230.69807725896175" opacity="0.7356835776360798"></circle><circle r="4.8652741729198015" cx="783.7658195924736" cy="11.939126251376404" opacity="0.35434552229986127"></circle><circle r="6.964744978361587" cx="744.404656685648" cy="402.21673442451635" opacity="0.1163346338263069"></circle><circle r="6.0693615063719815" cx="645.1495432155256" cy="254.25381804771777" opacity="0.9908266825597275"></circle><circle r="3.574305370254735" cx="137.51683136105032" cy="66.97654482097671" opacity="0.12529328364738107"></circle><circle r="8.600683199342935" cx="567.5357711902568" cy="124.75134663694125" opacity="0.7127359845471697"></circle><circle r="5.154439010401255" cx="250.3388830505905" cy="12.068828306829245" opacity="0.4889442016673664"></circle><circle r="4.526299834421486" cx="236.30514170826171" cy="569.5815550999833" opacity="0.30062206139078607"></circle><circle r="4.798201646418001" cx="296.9448151207559" cy="786.5338629436895" opacity="0.3308811143409649"></circle><circle r="7.48335594391039" cx="671.2793035384982" cy="115.92153611454762" opacity="0.45504089004467907"></circle><circle r="6.812309437552849" cx="604.9523864551751" cy="534.0154369214237" opacity="0.4515367261837667"></circle><circle r="4.21052220938402" cx="672.6487859521866" cy="721.5041982480305" opacity="0.4298233433760704"></circle><circle r="6.875156620052555" cx="647.570419442093" cy="219.39803421520023" opacity="0.7509445466958983"></circle><circle r="4.783792777794046" cx="308.57940095922083" cy="689.5839232833606" opacity="0.8665987849345917"></circle><circle r="5.253232884545145" cx="382.80409583522237" cy="15.399133611143727" opacity="0.5327264830865889"></circle><circle r="4.285650817611734" cx="714.0128730567083" cy="543.6753210817272" opacity="0.3060953041070409"></circle><circle r="3.1816242390055813" cx="495.75635434383565" cy="483.7012909896614" opacity="0.4535428830426105"></circle><circle r="5.665375365544931" cx="570.2973716744626" cy="593.8514411127888" opacity="0.17991057041399466"></circle><circle r="3.293775688674208" cx="252.6803229743398" cy="373.85522025821587" opacity="0.5105287959500772"></circle><circle r="5.869983170274652" cx="314.4935575901173" cy="725.7559355227088" opacity="0.6337420763140219"></circle><circle r="3.7017496568813435" cx="540.930953460198" cy="594.2827221083452" opacity="0.19124814740205737"></circle><circle r="4.3650370670325" cx="392.56539853039726" cy="537.7863064562157" opacity="0.26227730429374385"></circle><circle r="7.633419594944426" cx="431.0800876960519" cy="639.8142599867477" opacity="0.5529927198004331"></circle><circle r="6.1288918843281595" cx="613.8296828135719" cy="698.5472383718461" opacity="0.828650343757895"></circle><circle r="6.3682981902753575" cx="754.8261556792469" cy="56.161310360035166" opacity="0.328530078297132"></circle><circle r="5.295264956963022" cx="447.053686565309" cy="539.786327613899" opacity="0.7111365238904807"></circle><circle r="6.302315273822957" cx="37.26143410450465" cy="585.762413852419" opacity="0.33659828616521825"></circle><circle r="5.039129789873134" cx="457.895662147595" cy="177.60795955336226" opacity="0.32796418057693666"></circle><circle r="4.748319837807927" cx="652.1102421594403" cy="36.70927381003298" opacity="0.5786074662154141"></circle><circle r="7.041255350744995" cx="521.7340426864055" cy="200.91963735676774" opacity="0.8046093107047814"></circle><circle r="7.063442844792229" cx="629.1907954032371" cy="376.80292239312803" opacity="0.21727452159485375"></circle><circle r="5.370974236821436" cx="611.52677189134" cy="404.38887646821246" opacity="0.9956113911121255"></circle><circle r="6.81129210574462" cx="135.62496333794545" cy="569.9804862586547" opacity="0.27740132800795375"></circle><circle r="6.310454951561505" cx="466.3367789099516" cy="641.4498880381468" opacity="0.9683180692729774"></circle><circle r="4.828260354259471" cx="643.8614392217102" cy="187.4229981627824" opacity="0.8769142284079824"></circle><circle r="6.806928297282765" cx="731.8640368262962" cy="232.96561731381573" opacity="0.8343927842865406"></circle><circle r="4.799832331344805" cx="588.6726646960793" cy="276.2790596475921" opacity="0.772407077868656"></circle><circle r="8.814209543762672" cx="575.8039336223276" cy="209.66638576028888" opacity="0.7518715676876667"></circle><circle r="7.108314410106495" cx="104.0127251937848" cy="588.2268861697509" opacity="0.7032706691653773"></circle><circle r="4.256940816532646" cx="552.7558950627397" cy="224.77710699691184" opacity="0.9760295122998397"></circle><circle r="4.036167073361859" cx="458.9873857501891" cy="443.96455463392533" opacity="0.949457699678908"></circle><circle r="6.361419554990497" cx="526.4581403388127" cy="167.89889630093055" opacity="0.5194508462530851"></circle><circle r="4.8396196246750485" cx="768.2975019523662" cy="625.8949811766287" opacity="0.5138531928533777"></circle><circle r="3.99259636538507" cx="162.74776485482067" cy="359.78104804054817" opacity="0.8459828534901122"></circle><circle r="5.324378591789769" cx="470.2713478323846" cy="500.32248939396777" opacity="0.9111848852253344"></circle><circle r="6.96119172388522" cx="335.5082190716398" cy="783.2308275444996" opacity="0.26843584187044234"></circle><circle r="5.006051398958141" cx="418.5775815157203" cy="382.6316963670568" opacity="0.23686587452852417"></circle><circle r="3.5634096227947714" cx="676.0838445537456" cy="557.5298518877993" opacity="0.31549148507292124"></circle><circle r="5.873459818381558" cx="145.58532522618412" cy="602.8407921114753" opacity="0.9947610067074967"></circle><circle r="4.766464411946206" cx="145.80886358133455" cy="538.1572917510848" opacity="0.39411599759826244"></circle><circle r="6.199030969092485" cx="469.86355136114815" cy="244.47404131027375" opacity="0.8208638435451081"></circle><circle r="4.869991932159334" cx="320.0646058226378" cy="91.32875039226876" opacity="0.39253203324185715"></circle><circle r="3.953638479358815" cx="100.10433306329091" cy="532.9820696732675" opacity="0.5007115199384825"></circle><circle r="5.452288968965968" cx="660.230266840666" cy="151.8560866987803" opacity="0.5031619845344247"></circle><circle r="4.586242763863586" cx="272.95870514764886" cy="766.9971380696396" opacity="0.8279151517262873"></circle><circle r="6.944520147257634" cx="174.04319823135964" cy="546.0886656056473" opacity="0.6037581366977226"></circle><circle r="5.370737739488137" cx="604.743474284692" cy="114.4311693504786" opacity="0.13311482323228988"></circle><circle r="4.421107263806874" cx="572.4314286178866" cy="43.40536800554025" opacity="0.37253357625431605"></circle><circle r="6.1760424866471535" cx="414.83715643386387" cy="335.21520214932127" opacity="0.8644572286812303"></circle><circle r="6.810772422774456" cx="593.6469242624153" cy="431.0764430752439" opacity="0.6583833968526795"></circle><circle r="4.6964157250684835" cx="392.03093602886224" cy="595.9969657723867" opacity="0.13320552422529444"></circle><circle r="4.654053145633451" cx="270.7953240374307" cy="572.3252365040996" opacity="0.8275457877800291"></circle><circle r="4.844206566803143" cx="288.4854536488784" cy="247.20995177852916" opacity="0.19742277194513516"></circle><circle r="4.100794218793832" cx="724.2658077780752" cy="786.7812719796154" opacity="0.8409634806657176"></circle><circle r="4.4769967135315" cx="87.39267220569752" cy="344.0541510897581" opacity="0.25461381000973854"></circle><circle r="9.199272967485886" cx="380.70056501401234" cy="376.27144708793116" opacity="0.8297572014874672"></circle><circle r="5.981967284150215" cx="783.7433215826053" cy="111.39917686348596" opacity="0.14051047499690886"></circle><circle r="3.2095729673737554" cx="641.8373174709573" cy="312.7696738269611" opacity="0.6614148974164655"></circle><circle r="5.635666648921195" cx="542.632082211635" cy="52.89951035123322" opacity="0.31857818191254395"></circle><circle r="3.907729882700129" cx="383.1385641992733" cy="568.2829853245769" opacity="0.3925635301051529"></circle><circle r="2.8690258729703406" cx="13.329286799053039" cy="129.30506045255746" opacity="0.43032906441149166"></circle><circle r="3.543390665293049" cx="530.1785626345646" cy="12.863742639797026" opacity="0.3145939273336383"></circle><circle r="8.26140407066806" cx="158.6377286366677" cy="100.905236395478" opacity="0.49800056128408676"></circle><circle r="4.225991675076427" cx="638.8279044576446" cy="486.2970934960917" opacity="0.10990773755293956"></circle><circle r="6.100526088280724" cx="474.3931103379303" cy="467.23944268440664" opacity="0.5779895839180862"></circle><circle r="10.08215294853299" cx="366.9609242280915" cy="423.0839948482722" opacity="0.39499227879474264"></circle><circle r="6.575782794182594" cx="15.092755945633751" cy="320.41084436664164" opacity="0.48268956489083426"></circle><circle r="5.628101233033835" cx="554.878849071951" cy="20.20217057863008" opacity="0.7288300680349691"></circle><circle r="6.4797773881201195" cx="446.9415688768787" cy="735.8103395822187" opacity="0.7350870473919968"></circle><circle r="4.281991797306489" cx="698.616782440582" cy="489.9312788637087" opacity="0.6991929548193412"></circle><circle r="7.357604631003524" cx="532.767128616987" cy="463.14437483141967" opacity="0.39421556191663376"></circle><circle r="4.736152506475713" cx="178.92478976077567" cy="223.13915342499845" opacity="0.8990066798857786"></circle><circle r="4.865280537601885" cx="285.3507191026009" cy="313.5631234021231" opacity="0.6131771735678655"></circle><circle r="5.4159286405961025" cx="15.573142492781642" cy="276.7246218957869" opacity="0.5319841966373712"></circle><circle r="3.126001888142063" cx="106.23707337890194" cy="556.852272533915" opacity="0.20086257519108786"></circle><circle r="4.675035072622276" cx="217.876538996541" cy="383.6235097987394" opacity="0.12898463130542212"></circle><circle r="5.0204946455764015" cx="551.1698339796782" cy="247.96937072481498" opacity="0.2522808104848048"></circle><circle r="3.876220589759808" cx="416.46006147991915" cy="550.5718284686924" opacity="0.5452489158832629"></circle><circle r="3.8786500430097735" cx="380.56360310126047" cy="512.2267815140253" opacity="0.4277151746196458"></circle><circle r="6.489352680753659" cx="420.5268944652284" cy="128.34319952523197" opacity="0.40707576552553704"></circle><circle r="3.3816741568432085" cx="54.11710463193007" cy="648.1877829385968" opacity="0.28537259414033633"></circle><circle r="4.1826134421231655" cx="683.481839917442" cy="668.816384403198" opacity="0.3950045265983033"></circle><circle r="3.897472498325364" cx="213.53084797855806" cy="14.839181043853653" opacity="0.19608526163049184"></circle><circle r="3.2213866446098933" cx="415.83179857552733" cy="525.3615678661411" opacity="0.6894008930692653"></circle><circle r="8.669881478354576" cx="188.14062105083025" cy="297.59126787381246" opacity="0.9064209058306878"></circle><circle r="4.77232589023108" cx="298.32713554531415" cy="216.71587492025398" opacity="0.5346164934134098"></circle><circle r="3.896307055297587" cx="61.300984957534816" cy="506.82285794918596" opacity="0.6538095279758022"></circle><circle r="7.091381090111765" cx="159.1105826936588" cy="319.6386264663875" opacity="0.7537576060262091"></circle><circle r="6.0971371256535125" cx="534.6154778245892" cy="680.7478573966007" opacity="0.17980853259829122"></circle><circle r="4.116933015056629" cx="472.2335460396249" cy="529.7682649746481" opacity="0.33904875425553255"></circle><circle r="4.547431408226279" cx="198.75802721874615" cy="411.48403699527927" opacity="0.6420865752423306"></circle><circle r="5.983095509581579" cx="190.96262041964715" cy="45.35198912078854" opacity="0.5829664515959345"></circle><circle r="7.173729705066342" cx="49.60966332982224" cy="101.51649878405718" opacity="0.14031197082634334"></circle><circle r="6.079212592619651" cx="208.04512273180964" cy="128.48688760799368" opacity="0.9106341394998689"></circle><circle r="6.04636380842717" cx="786.9922743737119" cy="609.0648315360412" opacity="0.5858957639491161"></circle><circle r="6.586302692837428" cx="76.66285083007425" cy="260.1172289072433" opacity="0.2328629790283536"></circle><circle r="5.784725530086806" cx="681.5957475312066" cy="296.2131071429482" opacity="0.5130814556261116"></circle><circle r="6.996987346884714" cx="180.7507013564169" cy="148.07863040269726" opacity="0.8651093919322356"></circle><circle r="7.125277516819848" cx="179.51885290447765" cy="15.61851441221792" opacity="0.8604643891127657"></circle><circle r="5.3182055258690415" cx="490.55759008485296" cy="217.82758873141515" opacity="0.7236935050709594"></circle><circle r="4.189689162993005" cx="258.45002260244803" cy="784.5743711739498" opacity="0.864974813635252"></circle><circle r="6.302195711515158" cx="280.90127632230616" cy="25.509869263600596" opacity="0.5376103113904487"></circle><circle r="4.9544285250382" cx="147.87575711972727" cy="135.49102253086633" opacity="0.6062004285374026"></circle><circle r="6.590674271612774" cx="622.0494688937304" cy="568.2751663814237" opacity="0.5128242312323154"></circle><circle r="4.166335788391155" cx="768.8522769666139" cy="87.9053924182848" opacity="0.546350438328868"></circle><circle r="5.9238130674198395" cx="749.0865469692063" cy="334.9083468092967" opacity="0.2344806144964807"></circle><circle r="5.462615055911144" cx="226.25853092416713" cy="513.3224267506107" opacity="0.4039429677331201"></circle><circle r="5.011064624698285" cx="469.75162044862833" cy="563.2037807251403" opacity="0.7759086839029811"></circle><circle r="3.483450744584641" cx="636.6917864152344" cy="48.62269691317198" opacity="0.6717731034962159"></circle><circle r="7.730245045671369" cx="287.7512631158265" cy="353.3031750201105" opacity="0.7158857765130767"></circle><circle r="7.926722001235177" cx="624.9471795767371" cy="458.6780613140297" opacity="0.6814511752200888"></circle><circle r="7.661609426122188" cx="503.84431542683313" cy="450.3114503628588" opacity="0.9091505898642649"></circle><circle r="9.504716116929512" cx="439.55397225533073" cy="775.1968918752731" opacity="0.20940212279725473"></circle><circle r="3.8906427716891403" cx="664.6782387703495" cy="271.468048352198" opacity="0.5184934266911684"></circle><circle r="3.4082729971817614" cx="135.9714382783522" cy="249.9123658816569" opacity="0.3832930738054475"></circle><circle r="6.239782320817828" cx="514.2800122878001" cy="763.4393924655908" opacity="0.12007137415039375"></circle><circle r="4.910409322553221" cx="511.7582450263732" cy="672.5388397555885" opacity="0.4563839233303598"></circle><circle r="6.991784921873268" cx="599.2709311154308" cy="630.1212153452868" opacity="0.7798368512059427"></circle><circle r="5.007197008299434" cx="449.9018358396701" cy="214.16872262417516" opacity="0.3380903082276538"></circle><circle r="7.828819670639909" cx="407.643086992452" cy="416.1590675302839" opacity="0.1667135576653171"></circle><circle r="3.42325060228006" cx="724.5308900609547" cy="277.1720025947415" opacity="0.22529909126074268"></circle><circle r="8.496707894173715" cx="351.77034001882174" cy="739.3298936727235" opacity="0.7314460944212633"></circle><circle r="5.523769500816799" cx="494.3343465570591" cy="131.13139924760878" opacity="0.4282711494651126"></circle><circle r="4.103705271509142" cx="585.6343364800202" cy="90.12968360100781" opacity="0.7429423036179306"></circle><circle r="5.769837410310336" cx="169.06192825891497" cy="185.621036947239" opacity="0.61711371321198"></circle><circle r="4.892794483457076" cx="633.8670809255219" cy="141.01882936939782" opacity="0.33439177138378395"></circle><circle r="3.9623250679975044" cx="649.3995692478723" cy="564.9206995725376" opacity="0.3898955616268561"></circle><circle r="5.759553737668475" cx="131.36579324459805" cy="741.2146457552551" opacity="0.7265513375565127"></circle><circle r="10.065114090641071" cx="93.64440107747197" cy="122.66642907097" opacity="0.7164610851387003"></circle><circle r="5.210695873501795" cx="788.7886899100445" cy="76.8231489001595" opacity="0.3833989794344056"></circle><circle r="7.9444376851646625" cx="180.4475786924776" cy="259.6552764768546" opacity="0.7994191502768601"></circle><circle r="5.806549365820877" cx="619.9615629894837" cy="318.22405980604367" opacity="0.29564349804069395"></circle><circle r="4.237313631888819" cx="113.19553431285667" cy="78.10603330070104" opacity="0.15406482200577998"></circle><circle r="7.034824856499256" cx="717.5609659699325" cy="122.57880846012279" opacity="0.4853906148730459"></circle><circle r="2.8012029664592317" cx="578.0013393103029" cy="10.534000888904249" opacity="0.25323972224770647"></circle><circle r="5.695817604276315" cx="488.9113441439867" cy="77.61855857683788" opacity="0.25189749737547895"></circle><circle r="9.140972126425414" cx="289.76965615838645" cy="652.5290685060244" opacity="0.9251629497022734"></circle><circle r="7.240287239936729" cx="235.45760431109676" cy="87.05684348477949" opacity="0.28389363705081694"></circle><circle r="6.4778584458950785" cx="348.4537333338291" cy="177.0841457084022" opacity="0.3003577673388176"></circle><circle r="8.552722274123328" cx="735.442751850375" cy="436.26613237149127" opacity="0.7399361986226488"></circle><circle r="3.7846165302666868" cx="191.59433005214663" cy="379.99558202908423" opacity="0.505195043115428"></circle><circle r="3.8078033215167646" cx="696.3413580026107" cy="516.8062640746058" opacity="0.5421260147420588"></circle><circle r="10.538292721303883" cx="327.31499322257173" cy="441.9394200798496" opacity="0.8624525960367422"></circle><circle r="4.454598595010305" cx="693.4247601850396" cy="17.437758824010558" opacity="0.266645338567624"></circle><circle r="4.361662893887499" cx="139.08922242527782" cy="272.7494082801645" opacity="0.3250087257092964"></circle><circle r="3.9113190609516724" cx="105.88934613731998" cy="784.4000745684283" opacity="0.7111631108984908"></circle><circle r="3.5364458114238513" cx="514.0184488724371" cy="590.6432209384747" opacity="0.9395727379645228"></circle><circle r="2.692356569435411" cx="621.9085850623984" cy="8.576409671393453" opacity="0.8059541542256967"></circle><circle r="6.251675976141523" cx="727.7805417467981" cy="152.65227786333242" opacity="0.28251639799066675"></circle><circle r="4.432333631505875" cx="675.4191454084142" cy="636.5094209863237" opacity="0.32284392691275976"></circle><circle r="3.764220157010928" cx="485.44986115290726" cy="604.0038293007684" opacity="0.5528457763476451"></circle><circle r="7.9773716475489085" cx="259.23993848202747" cy="201.39869772951246" opacity="0.39190112587193626"></circle><circle r="7.361235625020714" cx="416.4808281606419" cy="299.30395460724924" opacity="0.9437611104176338"></circle><circle r="3.0224123933368627" cx="677.2719137834468" cy="739.6707712086154" opacity="0.2544116049732733"></circle><circle r="7.949175507800852" cx="444.6724339524529" cy="416.1702596728848" opacity="0.14632743668402645"></circle><circle r="6.876390881259255" cx="93.8637608602337" cy="717.5493694736083" opacity="0.6667106272192727"></circle><circle r="5.687869056531005" cx="92.34019732851021" cy="505.9121056023627" opacity="0.8823274088916552"></circle><circle r="4.361290538431167" cx="190.2251461284565" cy="342.8994461383971" opacity="0.5609713884538173"></circle><circle r="7.61891662352096" cx="672.5217810959201" cy="600.2244455042394" opacity="0.7397817722957534"></circle><circle r="4.2881333097074625" cx="687.9882185465233" cy="213.74819851667462" opacity="0.5833506519030192"></circle><circle r="6.299887045409787" cx="262.7293864594709" cy="438.2031226296193" opacity="0.7770663280144172"></circle><circle r="8.049910362560018" cx="730.6617714273445" cy="675.8631298661012" opacity="0.7208296797594355"></circle><circle r="9.446776934435412" cx="336.83621906043254" cy="135.84800549781056" opacity="0.6131328594627797"></circle><circle r="6.041905628427083" cx="314.2704929159605" cy="756.9990186271133" opacity="0.6859508076483126"></circle><circle r="6.83090298919512" cx="604.9223216484855" cy="142.25899727743572" opacity="0.3813972715151568"></circle><circle r="4.358041981982509" cx="504.4400778265673" cy="721.1704998105961" opacity="0.15332611444528044"></circle><circle r="3.240767614310251" cx="285.27602995789255" cy="749.6243169251939" opacity="0.14724031485273703"></circle><circle r="4.756733264537184" cx="775.6984334039514" cy="426.0398983456077" opacity="0.8766094442677665"></circle><circle r="7.667402914720325" cx="604.6971724250375" cy="747.5213965942767" opacity="0.11508690958049615"></circle><circle r="4.33940385266723" cx="764.5520775540734" cy="269.2734648067719" opacity="0.4142593238806306"></circle><circle r="3.1441709395135615" cx="678.1088787476973" cy="756.6764916949827" opacity="0.4164104718552105"></circle><circle r="4.881462526818891" cx="460.7009780171243" cy="684.7541660484505" opacity="0.6523336446217594"></circle><circle r="3.3921760946732085" cx="733.4554304366249" cy="69.57512117664066" opacity="0.9774514957041546"></circle><circle r="4.945979850497713" cx="524.2368694181885" cy="286.76259705193365" opacity="0.5342325893062673"></circle><circle r="4.501655575860605" cx="559.3969004102019" cy="74.83356055107181" opacity="0.5093682774083246"></circle><circle r="5.524202830473701" cx="245.14934889135944" cy="734.2494029277885" opacity="0.44819512440402887"></circle><circle r="4.398023600893907" cx="353.83980447611486" cy="105.85828621999397" opacity="0.6477724276062917"></circle><circle r="6.467222656207442" cx="508.0978112032367" cy="560.7278754387804" opacity="0.1139349022324968"></circle><circle r="3.1581833419007017" cx="676.983108162772" cy="488.7372149303168" opacity="0.26402560564094296"></circle><circle r="5.653997470214547" cx="716.9331008601408" cy="90.96426994212759" opacity="0.5731290967829354"></circle><circle r="4.46804162040232" cx="382.4911670772318" cy="616.4306667259541" opacity="0.5281600476215115"></circle><circle r="5.657699884284844" cx="145.78481660968419" cy="779.0659418423513" opacity="0.6135358098721515"></circle><circle r="7.320384229054178" cx="254.71548624678115" cy="693.592204749431" opacity="0.6091325514472067"></circle><circle r="5.069664816349742" cx="711.3052967368088" cy="46.87298082040435" opacity="0.6391404676260005"></circle><circle r="5.150850693856169" cx="470.2943221060858" cy="37.8074436238808" opacity="0.8938438097813034"></circle><circle r="8.798257864919577" cx="741.130192654153" cy="553.5128783134851" opacity="0.3018197913005618"></circle><circle r="3.8952725057409516" cx="412.44194513859696" cy="23.741617035944373" opacity="0.4086950899672066"></circle><circle r="6.604697235327459" cx="290.99177961654306" cy="278.9399924217904" opacity="0.3288110064575623"></circle><circle r="6.900188369022752" cx="133.21600483987467" cy="298.03791309378863" opacity="0.48256305242842057"></circle><circle r="4.781632546958212" cx="517.3658684440749" cy="361.09434940784837" opacity="0.784908664782423"></circle><circle r="6.403371252626817" cx="363.2985071781203" cy="233.11422743925948" opacity="0.5977917200432665"></circle><circle r="4.7447102434704505" cx="459.28122810056897" cy="341.44998840054325" opacity="0.41158377688741066"></circle><circle r="4.369701582124803" cx="90.25672808195225" cy="387.0503648964564" opacity="0.40718489145137293"></circle><circle r="4.642476338533623" cx="467.20742555165054" cy="10.248765786896453" opacity="0.5502269971553574"></circle><circle r="8.380419583152774" cx="220.39492579841018" cy="636.0245590990173" opacity="0.6411592459683516"></circle><circle r="6.974970319049375" cx="749.7246675745804" cy="587.3903314634875" opacity="0.25233331607948517"></circle><circle r="7.411042144539474" cx="70.66162216431877" cy="51.75161580252399" opacity="0.5355905167607298"></circle><circle r="5.3747918491935875" cx="199.5391006486761" cy="76.75011453078875" opacity="0.45224211978713635"></circle><circle r="5.400378265968272" cx="432.01105295423235" cy="603.1027735715771" opacity="0.6174038779399056"></circle><circle r="6.535642164956995" cx="70.3866389491296" cy="549.2582352470283" opacity="0.2638834862241314"></circle><circle r="3.200118893891834" cx="682.8594560288946" cy="503.9203101539395" opacity="0.23069865776628667"></circle><circle r="5.501821080448966" cx="748.4871886928722" cy="171.3432777263129" opacity="0.6532410078307869"></circle><circle r="5.273858149812098" cx="253.72142397760646" cy="336.2628820805347" opacity="0.5886998068548797"></circle><circle r="7.839070331330253" cx="47.952110807759354" cy="276.12600965864885" opacity="0.9266558496871287"></circle><circle r="6.46355185888498" cx="782.991073102735" cy="182.1942619691208" opacity="0.3950281586438874"></circle><circle r="6.1008026012930845" cx="521.4895952850434" cy="392.83959951543693" opacity="0.28233018691671297"></circle><circle r="7.502181408229483" cx="403.1396796436588" cy="237.63900184993668" opacity="0.13784553749409034"></circle><circle r="6.686209812073207" cx="268.51686446962555" cy="398.7112381610513" opacity="0.6667010188750927"></circle><circle r="5.617387206698625" cx="216.54398507497794" cy="724.0610635245655" opacity="0.7549625734662466"></circle><circle r="5.836534886900524" cx="98.09830686754526" cy="234.92705825778867" opacity="0.24114596733210614"></circle><circle r="6.351085425936443" cx="361.984496843154" cy="542.1787839430722" opacity="0.9386054374597713"></circle><circle r="3.7455146517809057" cx="563.7939125806541" cy="476.3931588955817" opacity="0.8942139361806318"></circle><circle r="5.796701603107653" cx="788.2366345017227" cy="291.4470098260607" opacity="0.33771025258669585"></circle><circle r="6.800043313402885" cx="314.8067239557356" cy="14.730425590146902" opacity="0.20671016524750163"></circle><circle r="2.6135775776156143" cx="22.713867279342914" cy="668.113099675017" opacity="0.9307020094261522"></circle><circle r="3.2620329744275063" cx="616.4504135172758" cy="57.37599045325537" opacity="0.2949628730589071"></circle><circle r="5.410562336092845" cx="28.603090613132903" cy="56.60132247462471" opacity="0.6028080835163598"></circle><circle r="4.978468580789595" cx="725.6580017681935" cy="502.7654269261307" opacity="0.4480722139187734"></circle><circle r="6.8473980006216255" cx="75.71561620513754" cy="767.8577532717238" opacity="0.9810804660419824"></circle><circle r="5.3764377925301465" cx="228.19605835610707" cy="307.1886865099993" opacity="0.9417022142497937"></circle><circle r="7.914512274274383" cx="712.8257477216717" cy="186.1261933104144" opacity="0.3730300857044404"></circle><circle r="7.8993388140279315" cx="695.8750521769483" cy="371.66005877265286" opacity="0.36878459328672886"></circle><circle r="4.2884664113610365" cx="697.6041496374527" cy="147.0726682101742" opacity="0.8918022341569316"></circle><circle r="6.519722463690586" cx="105.64269234233446" cy="14.371236943387151" opacity="0.5531455565477311"></circle><circle r="5.295298533963325" cx="65.30225067737534" cy="606.0761460290618" opacity="0.6321231059774284"></circle><circle r="3.654233899442702" cx="206.5194122838719" cy="103.91079060934184" opacity="0.6439498322718453"></circle><circle r="7.772361414938297" cx="655.5070407825036" cy="349.71119896089556" opacity="0.7896317586495777"></circle><circle r="5.392154436661182" cx="393.6443508453365" cy="721.7599864389495" opacity="0.9796450242254482"></circle><circle r="5.088637407670123" cx="720.7449012935647" cy="343.75315814277815" opacity="0.8279255030464019"></circle><circle r="5.3139640817429" cx="705.9240465356654" cy="296.2671836575316" opacity="0.43841456705970006"></circle><circle r="3.8757115349813223" cx="11.106148366149409" cy="24.882784846792273" opacity="0.3327419089409032"></circle><circle r="5.170489501306774" cx="578.7465063162224" cy="496.6701601271195" opacity="0.5125859001191629"></circle><circle r="4.444864757970454" cx="354.28777225102795" cy="16.622280613447348" opacity="0.34816957242599345"></circle><circle r="7.71121506208398" cx="292.4027504384643" cy="118.47091869117317" opacity="0.9536540818230101"></circle><circle r="6.904796002654524" cx="643.2108480979165" cy="594.9508305806481" opacity="0.49932060133959877"></circle><circle r="6.660512150668302" cx="368.3640392706701" cy="329.9977875458349" opacity="0.7243834873872683"></circle><circle r="4.13912791066303" cx="658.9331002338205" cy="537.5793596596391" opacity="0.9810752153279814"></circle><circle r="5.998232502986234" cx="24.129137039553665" cy="152.8850809594658" opacity="0.1708975828929583"></circle><circle r="3.5859497225261476" cx="392.2740846818649" cy="666.8257052638295" opacity="0.9970330232369762"></circle><circle r="4.793263243101293" cx="419.8830733159499" cy="733.4186812261024" opacity="0.38212406719728764"></circle><circle r="5.001482868775687" cx="487.8609277247412" cy="357.18759615473226" opacity="0.5919525831475454"></circle><circle r="6.73007069626249" cx="529.3599770882213" cy="136.36855003900772" opacity="0.20474499224253695"></circle><circle r="5.319863251145761" cx="73.14041562504488" cy="16.844235864541655" opacity="0.7358259428569758"></circle><circle r="7.774960505032512" cx="780.3179545966875" cy="233.736867912641" opacity="0.6866082325203771"></circle><circle r="3.5959243919863453" cx="47.201088965506976" cy="315.09298017492705" opacity="0.6775578190749095"></circle><circle r="6.043744266577685" cx="710.9470445080394" cy="460.47478283238456" opacity="0.3680643112066636"></circle><circle r="5.7421484318067355" cx="152.76950658215415" cy="32.94178039645641" opacity="0.6116866198152194"></circle><circle r="5.307337253363106" cx="234.37030833038637" cy="411.5536722001308" opacity="0.3561855383485719"></circle><circle r="5.0406951399837245" cx="381.6088822551557" cy="122.64231824332057" opacity="0.6291320428169654"></circle><circle r="5.66317498394409" cx="537.7444729112812" cy="636.707138603273" opacity="0.8531891692087885"></circle><circle r="3.3636347641548645" cx="403.70682357421776" cy="788.34074869208" opacity="0.7559348883940498"></circle><circle r="5.869694647178864" cx="140.17800926465327" cy="193.39500719439314" opacity="0.9448921125242006"></circle><circle r="8.05580969370168" cx="349.30644003647444" cy="628.4015239043794" opacity="0.5677773668946515"></circle><circle r="5.394744348783675" cx="498.5573814794536" cy="530.9692646697575" opacity="0.6225725300209314"></circle><circle r="7.711101287975347" cx="436.80060963013403" cy="509.83496840377757" opacity="0.801062177788325"></circle><circle r="3.257874215948058" cx="380.7685466542012" cy="682.9164519663999" opacity="0.3732918803988986"></circle><circle r="8.62335007307482" cx="139.25376150777143" cy="424.67779160892763" opacity="0.3445804809607279"></circle><circle r="5.516706996689279" cx="708.0116531589251" cy="255.51089938026698" opacity="0.46784866686458304"></circle><circle r="5.291299039454346" cx="496.7268196204334" cy="46.56551526845141" opacity="0.8544002098830007"></circle><circle r="4.427044039699853" cx="394.2228619013922" cy="641.5338495127689" opacity="0.13276253848975747"></circle><circle r="4.337975848585403" cx="251.01729484735822" cy="127.22436599822232" opacity="0.8177719787798116"></circle><circle r="4.311910679585252" cx="638.9730265330381" cy="278.9021958812694" opacity="0.5260287405646321"></circle><circle r="4.614296601869377" cx="750.5963045166644" cy="118.95898957712303" opacity="0.8844128235056472"></circle><circle r="2.6848807969230855" cx="791.457122272519" cy="442.4789821827524" opacity="0.4919563226086179"></circle><circle r="6.303020276792443" cx="49.73386436772104" cy="730.4782040857609" opacity="0.6262182490646682"></circle><circle r="4.039743976475012" cx="780.0060531116193" cy="458.5311816869154" opacity="0.6363085415163737"></circle><circle r="5.65195804868441" cx="575.7894164099221" cy="707.0570800877103" opacity="0.6802996773948587"></circle><circle r="4.268835740364191" cx="743.9019101781865" cy="759.8401802048945" opacity="0.8001294724985365"></circle><circle r="5.6363166423728615" cx="481.8482357893324" cy="785.4137189494163" opacity="0.5790865193155779"></circle><circle r="6.422331918485302" cx="351.6187210775546" cy="580.5827097543872" opacity="0.7768143553238082"></circle><circle r="4.825309647600926" cx="75.73067361941598" cy="459.8015343553888" opacity="0.43110406111372235"></circle><circle r="2.757573666635316" cx="654.6585950286196" cy="290.8560023529929" opacity="0.22177555095423918"></circle><circle r="3.9744183134584365" cx="567.2198358633866" cy="625.357646271482" opacity="0.26412313156571365"></circle><circle r="5.478372879705273" cx="722.0348952626241" cy="645.7076432268177" opacity="0.47962142933382146"></circle><circle r="6.865356741419838" cx="131.73816786566653" cy="691.0572231942679" opacity="0.9659661368696506"></circle><circle r="4.874960945321819" cx="401.520129601293" cy="756.4554356744437" opacity="0.2051118137814389"></circle><circle r="6.655005235487942" cx="175.23345064144817" cy="438.20768502047576" opacity="0.5565834440578475"></circle><circle r="5.927745771785764" cx="506.7366524540088" cy="645.564153105974" opacity="0.2731330956632056"></circle><circle r="6.133190427467239" cx="675.7243286807187" cy="59.279726757881726" opacity="0.786967697557377"></circle><circle r="6.297317454130339" cx="134.339454251895" cy="359.64404900167455" opacity="0.8614299464699782"></circle><circle r="5.292078405055117" cx="183.8737732312375" cy="642.8670914291162" opacity="0.6833952307465627"></circle><circle r="8.567041193323416" cx="384.85646966931273" cy="198.3664772854753" opacity="0.22415291367356246"></circle><circle r="7.548824261518092" cx="784.0313680055841" cy="778.7985300563653" opacity="0.9649712278860313"></circle><circle r="6.576089143456317" cx="364.66861817453474" cy="660.5703413977268" opacity="0.267259442547538"></circle><circle r="6.1862952004154605" cx="413.4112398968578" cy="450.7215810756463" opacity="0.14146736094090184"></circle><circle r="6.313343071262933" cx="699.9511600939671" cy="628.5726364188657" opacity="0.27616861893008104"></circle><circle r="6.375999096167323" cx="236.00969825935886" cy="229.6501403068932" opacity="0.37150934087679643"></circle><circle r="7.155558232199216" cx="288.6985500562719" cy="467.8467557244987" opacity="0.40894134167466645"></circle><circle r="6.714107164722169" cx="39.520333240294605" cy="15.605142152514917" opacity="0.1702756002310657"></circle><circle r="5.036511429786468" cx="522.7366987348311" cy="518.7685988711804" opacity="0.9424541040162648"></circle><circle r="6.698181071574977" cx="291.45552918967905" cy="182.09598229578853" opacity="0.4331045818615098"></circle><circle r="5.144078627337772" cx="435.3536858852126" cy="704.3449990309298" opacity="0.3632628309448115"></circle><circle r="6.008105033739541" cx="180.86218099967684" cy="518.6109448078713" opacity="0.7333057516018274"></circle><circle r="5.202178036598371" cx="596.0087930958639" cy="63.202784600385925" opacity="0.6774468843374272"></circle><circle r="5.586093072775333" cx="642.226877925438" cy="745.3008567978826" opacity="0.7799552801014844"></circle><circle r="5.468563930399423" cx="27.318551369910722" cy="636.2453975848874" opacity="0.9073204195306859"></circle><circle r="10.02385147123772" cx="336.07660591674306" cy="378.9918458173686" opacity="0.953155965339809"></circle><circle r="3.2485460681641602" cx="310.2439943059347" cy="252.5253616881759" opacity="0.1162448496349865"></circle><circle r="6.678972517467288" cx="642.0071414766799" cy="430.6308514742182" opacity="0.7255799217005294"></circle><circle r="4.908784078457433" cx="388.5595726097063" cy="276.53646705026813" opacity="0.9986828708841482"></circle><circle r="5.508076396561259" cx="735.2799817324976" cy="616.7318741739183" opacity="0.2814689041525906"></circle><circle r="6.130864943754569" cx="23.00014129678735" cy="392.77259878357137" opacity="0.15259379064244666"></circle><circle r="4.088192112689077" cx="474.93581857941615" cy="392.5495507436457" opacity="0.5935188404661947"></circle><circle r="6.460138046357359" cx="242.34737506332192" cy="38.874099243485546" opacity="0.30788031902182655"></circle><circle r="3.1083714325506917" cx="602.4869590559998" cy="10.158997157586315" opacity="0.2806622089438331"></circle><circle r="2.853746887390963" cx="520.8778491478888" cy="46.64646942235092" opacity="0.6052936594459828"></circle><circle r="5.291635012049337" cx="663.4729843557943" cy="16.104774466070605" opacity="0.9754890358834806"></circle><circle r="3.8414105210735947" cx="200.33376765468688" cy="544.6010598440344" opacity="0.5967202562404715"></circle><circle r="3.9998423502546885" cx="542.4074066999066" cy="268.63616624162006" opacity="0.5234693410082345"></circle><circle r="2.9760389482519933" cx="499.3392000587864" cy="695.0007955601852" opacity="0.3512902722727693"></circle><circle r="6.839937578150502" cx="219.03178248186435" cy="342.5884812438302" opacity="0.40193452511343797"></circle><circle r="6.491295969216642" cx="474.0540164214503" cy="720.3735765138117" opacity="0.657441253732121"></circle><circle r="3.0107028679982215" cx="266.9618777222531" cy="736.1915075315351" opacity="0.6530268303137985"></circle><circle r="3.4178662022957838" cx="449.38158445677715" cy="115.17134194365457" opacity="0.2076485486856271"></circle><circle r="7.204091374243847" cx="177.84249807023855" cy="777.1559403617649" opacity="0.6318505571832485"></circle><circle r="3.648788666279813" cx="707.7041246774011" cy="772.455913105284" opacity="0.9931412061136861"></circle><circle r="4.196351246101054" cx="114.97921274042285" cy="179.6723608775962" opacity="0.7146316634329817"></circle><circle r="5.905416820972737" cx="554.1732289615871" cy="166.95635121643372" opacity="0.5057061874325214"></circle><circle r="5.827650770236239" cx="657.1967496021243" cy="508.3947403934422" opacity="0.6643533712621859"></circle><circle r="5.151848831709107" cx="769.7891988813677" cy="516.0024044091709" opacity="0.8924084051255617"></circle><circle r="4.844701353129694" cx="509.3498617331726" cy="619.8614990474556" opacity="0.16170801421923647"></circle><circle r="3.108390680531896" cx="388.09486267602" cy="93.30581921703316" opacity="0.30063166392639307"></circle><circle r="3.6318630569083186" cx="66.0730740939714" cy="630.165111053724" opacity="0.3999072693960337"></circle><circle r="3.739200517961649" cx="99.46739086493618" cy="363.6021480475755" opacity="0.30355747786608245"></circle><circle r="3.147220348181694" cx="664.7048119406594" cy="479.1072916452078" opacity="0.6188047474409709"></circle><circle r="6.369035551073746" cx="441.14375835443656" cy="84.1330253735644" opacity="0.7638648448712164"></circle><circle r="4.934391027857764" cx="34.314470035742154" cy="531.3579268291655" opacity="0.6741189176180917"></circle><circle r="7.305506912471889" cx="617.2217868381938" cy="660.1747466078019" opacity="0.5402528067248165"></circle><circle r="6.7029739011483525" cx="588.7975682834084" cy="565.0742044964524" opacity="0.3369934709122318"></circle><circle r="5.054495412363243" cx="745.4612961732123" cy="95.04286666256525" opacity="0.8489371239834534"></circle><circle r="2.6580339627901863" cx="6.861267592780319" cy="654.8141463070292" opacity="0.6624358823332912"></circle><circle r="7.2134735103578285" cx="330.505973247029" cy="235.06727389364863" opacity="0.12234170820477364"></circle><circle r="5.464976452998172" cx="761.3455131889169" cy="655.269345513105" opacity="0.8958713188184984"></circle><circle r="4.465000594666572" cx="97.58584652977154" cy="478.53648176407637" opacity="0.3119859563917351"></circle><circle r="6.369040524045685" cx="656.1408759001961" cy="457.0676781752997" opacity="0.4583956158762339"></circle><circle r="6.510708813245724" cx="16.29846244455777" cy="211.65483730819355" opacity="0.8678146967340037"></circle><circle r="6.070521572274571" cx="606.6464581789213" cy="181.0967571024602" opacity="0.28399987942032273"></circle><circle r="4.632853908085188" cx="459.23506190231717" cy="272.4962666864397" opacity="0.14180683287913026"></circle><circle r="6.3412023353100455" cx="355.80667555360657" cy="492.77529084291064" opacity="0.19039933828291475"></circle><circle r="5.449334203787334" cx="371.709383239268" cy="464.6469347164791" opacity="0.923845466623525"></circle><circle r="6.043433641227154" cx="678.9067374292315" cy="435.4314784487291" opacity="0.38457508773477667"></circle><circle r="4.4752615640533095" cx="680.2977405902295" cy="177.90225910915447" opacity="0.23633481204885595"></circle><circle r="4.7303411647596505" cx="276.66724451241936" cy="597.159186986175" opacity="0.14609042760368646"></circle><circle r="6.204657585903554" cx="203.0106116174898" cy="498.3146656144838" opacity="0.4314626553243325"></circle><circle r="4.913195659844015" cx="179.2395773893226" cy="577.3112810778682" opacity="0.9945633918989941"></circle><circle r="6.585521672285497" cx="24.320699271289275" cy="466.68127613037456" opacity="0.6490530942503164"></circle><circle r="7.116158864128526" cx="152.64047882335456" cy="653.0759983134574" opacity="0.6566400353479745"></circle><circle r="6.105446314235158" cx="644.3985623686419" cy="402.47410817569676" opacity="0.12170690647793383"></circle><circle r="6.7498659171732935" cx="228.72615362888578" cy="150.5843091327351" opacity="0.30632309484218834"></circle><circle r="7.648830025141365" cx="122.23478834863644" cy="387.36782477334594" opacity="0.1961466976351016"></circle><circle r="4.661839405370333" cx="672.6115621901804" cy="239.13449991880736" opacity="0.3800515806532363"></circle><circle r="5.776992261940568" cx="218.91579955602154" cy="50.2364665920952" opacity="0.7732255466783686"></circle><circle r="6.421171603912583" cx="370.2444845036427" cy="775.0781787500059" opacity="0.26129465196487706"></circle><circle r="6.476517486506164" cx="348.41024474914366" cy="696.1972511997742" opacity="0.25891929631774135"></circle><circle r="7.612119122459615" cx="737.769283117587" cy="370.66006205090844" opacity="0.16081216724122943"></circle><circle r="5.913294048876394" cx="708.9660169118484" cy="740.2737723204824" opacity="0.9345841870279348"></circle><circle r="6.118504145853652" cx="781.7716226796348" cy="334.8120669591865" opacity="0.7843429855675698"></circle><circle r="7.2107972996318574" cx="176.9511717934122" cy="732.9717645023146" opacity="0.610395013223968"></circle><circle r="8.075202608072406" cx="647.757379708868" cy="659.4863757902143" opacity="0.6604209572869385"></circle><circle r="6.191085693945118" cx="493.5786049816974" cy="324.1048289348656" opacity="0.851177789531795"></circle><circle r="4.231195071869722" cx="614.789280456957" cy="31.884431382900605" opacity="0.4713331553376322"></circle><circle r="4.667560719908226" cx="15.853314348077793" cy="359.339227738084" opacity="0.2777999173425173"></circle><circle r="5.76615850727057" cx="640.4143446536232" cy="625.0124338000702" opacity="0.537635039694665"></circle><circle r="5.559882963412232" cx="561.2018162608567" cy="514.0404913902008" opacity="0.5125120189873006"></circle><circle r="4.018559319749837" cx="602.2325165978027" cy="251.20384526090643" opacity="0.3891139936917498"></circle><circle r="4.810354959746619" cx="782.7256302576391" cy="394.2760272927325" opacity="0.7756443796585966"></circle><circle r="4.18191126260055" cx="609.6466725182374" cy="502.26184150496056" opacity="0.25985143734344057"></circle><circle r="4.562247000791523" cx="166.87810173239413" cy="63.37417654251258" opacity="0.8297267098565404"></circle><circle r="6.929931194513818" cx="780.90883630591" cy="549.3391045953364" opacity="0.8761464757673938"></circle><circle r="5.638698110824462" cx="41.17586879859879" cy="340.1356034230568" opacity="0.3146262324642312"></circle><circle r="3.9979205279947925" cx="646.9426495416261" cy="77.21594636028117" opacity="0.9995864257899005"></circle><circle r="8.14243386694375" cx="327.0936508131542" cy="656.461452878096" opacity="0.48560703643389314"></circle><circle r="6.2371810242722034" cx="70.47427336256168" cy="580.5205996637633" opacity="0.78130016511078"></circle><circle r="6.792157604150091" cx="489.8318376365718" cy="278.7796163363862" opacity="0.47288062772254613"></circle><circle r="4.86344773648964" cx="651.2466592074254" cy="699.0044142903595" opacity="0.3455928046669765"></circle><circle r="6.057595015444967" cx="225.83386943632215" cy="541.2985527780381" opacity="0.9944498154218678"></circle><circle r="3.8526721212878146" cx="460.8097337966742" cy="294.6455786365518" opacity="0.6593839966616748"></circle><circle r="6.888675216367633" cx="300.82480785050524" cy="401.0070639903624" opacity="0.5545643208125925"></circle><circle r="8.094850531951355" cx="550.4813767812096" cy="357.65578346239516" opacity="0.44013790484676507"></circle><circle r="5.351977979322258" cx="696.6637720675446" cy="697.6020247823151" opacity="0.8053809343640725"></circle><circle r="5.362934092002094" cx="303.60249657186944" cy="151.94817684008046" opacity="0.8172679841831609"></circle><circle r="6.606364210463779" cx="310.86720816340136" cy="613.6621422059386" opacity="0.5867017093754643"></circle><circle r="3.4650133732860815" cx="146.08657033126187" cy="226.85596097952083" opacity="0.7218004760171222"></circle><circle r="7.0678171598006605" cx="65.29764372116301" cy="401.4128607745287" opacity="0.57338655446357"></circle><circle r="7.262073367471659" cx="443.25554908294464" cy="53.89855161756415" opacity="0.36841264210025026"></circle><circle r="5.972395013088018" cx="746.820082045535" cy="202.29093419498193" opacity="0.4393074655513538"></circle><circle r="4.910804445840868" cx="541.8303827656384" cy="494.4540427663474" opacity="0.4749966929945332"></circle><circle r="4.1037666167570315" cx="582.8125496046483" cy="163.4894389602094" opacity="0.4457559124989182"></circle><circle r="4.7989851929525456" cx="105.0222782793066" cy="273.15364869177046" opacity="0.6431208306202534"></circle><circle r="2.9124048374454103" cx="636.5834568006544" cy="15.812184223492302" opacity="0.8825269960625511"></circle><circle r="5.821465328389915" cx="36.28802565127441" cy="688.5138725616531" opacity="0.3348744560347015"></circle><circle r="8.876793341998658" cx="260.65507848916184" cy="629.142580637894" opacity="0.643390488784927"></circle><circle r="4.650341223844257" cx="210.99869070921523" cy="568.5366911693878" opacity="0.33632825847683945"></circle><circle r="5.963176393744934" cx="497.6345513326574" cy="167.76457927644745" opacity="0.2064414580937543"></circle><circle r="2.2150898345008763" cx="742.1934338798253" cy="277.2627448865285" opacity="0.5983371437203262"></circle><circle r="5.210781532877953" cx="336.36957739508074" cy="38.50836251725817" opacity="0.4142654115948743"></circle><circle r="5.583501426500815" cx="82.34602932803736" cy="84.79860748229113" opacity="0.9143241332819743"></circle><circle r="4.283598135232482" cx="221.19386861418272" cy="445.6530936451754" opacity="0.4912163110767158"></circle><circle r="8.263494903992026" cx="132.71341455072815" cy="506.00755126637205" opacity="0.22597963817640632"></circle><circle r="6.739414418794763" cx="73.28426538565455" cy="430.965215570233" opacity="0.6060110126254"></circle><circle r="7.837361687562629" cx="333.2389999678566" cy="529.3659629955142" opacity="0.5358405765088942"></circle><circle r="5.284125985927688" cx="411.88736693187417" cy="575.2627642945102" opacity="0.5985446340216501"></circle><circle r="6.541287970482854" cx="323.763778451715" cy="334.8211911470642" opacity="0.43538239349399577"></circle><circle r="4.370797821660906" cx="784.0148745042104" cy="578.6128763818814" opacity="0.9008204851815172"></circle><circle r="6.878445602780735" cx="761.6688447620638" cy="307.6400306633265" opacity="0.2509569150173092"></circle></g></svg>